<svg width="37" height="37" viewBox="0 0 37 37" fill="none" xmlns="http://www.w3.org/2000/svg">
<rect width="37" height="37" rx="8" fill="#2C2D35"/>
<path d="M18.814 14.4233H14.4233C11.999 14.4232 10.0337 12.4581 10.0337 10.0337C10.0338 7.6094 11.999 5.64414 14.4233 5.64404H18.814V14.4233Z" fill="#F24E1E"/>
<path d="M18.814 23.203H14.4233C11.999 23.2029 10.0337 21.2377 10.0337 18.8134C10.0338 16.3891 11.999 14.4238 14.4233 14.4237H18.814V23.203Z" fill="#A259FF"/>
<path d="M18.814 14.4233H23.2036C25.628 14.4232 27.5933 12.4581 27.5933 10.0337C27.5932 7.6094 25.6279 5.64414 23.2036 5.64404H18.814V14.4233Z" fill="#FF7262"/>
<path d="M10.0337 27.5932C10.0337 25.1688 11.9991 23.2034 14.4235 23.2034H18.8134V27.5932C18.8134 30.0176 16.848 31.983 14.4235 31.983V31.983C11.9991 31.983 10.0337 30.0176 10.0337 27.5932V27.5932Z" fill="#0ACF83"/>
<path d="M18.8135 18.8135C18.8135 16.3891 20.7789 14.4237 23.2033 14.4237V14.4237C25.6277 14.4237 27.5931 16.3891 27.5931 18.8135V18.8135C27.5931 21.238 25.6277 23.2034 23.2033 23.2034V23.2034C20.7789 23.2034 18.8135 21.238 18.8135 18.8135V18.8135Z" fill="#1ABCFE"/>
</svg>
