<svg width="44" height="44" viewBox="0 0 44 44" fill="none" xmlns="http://www.w3.org/2000/svg">
<rect x="22.1709" y="0.341797" width="30.8712" height="30.8712" rx="3" transform="rotate(45 22.1709 0.341797)" fill="white"/>
<path d="M19.9679 2.18633C21.1395 1.01509 23.0386 1.01499 24.2101 2.18633L41.797 19.7732C42.9683 20.9447 42.9683 22.8439 41.797 24.0154L24.2101 41.6023C23.0386 42.7738 21.1395 42.7737 19.9679 41.6023L2.38103 24.0154C1.20961 22.8439 1.20955 20.9448 2.38103 19.7732L14.6594 7.49395L19.0207 11.8836C18.6781 12.4159 18.4787 13.0493 18.4787 13.7293C18.4788 15.2164 19.4296 16.481 20.756 16.95V27.5877C19.4294 28.0567 18.4787 29.3221 18.4787 30.8094C18.4789 32.6957 20.0083 34.2253 21.8947 34.2254C23.781 34.2253 25.3105 32.6957 25.3107 30.8094C25.3107 29.3221 24.36 28.0567 23.0334 27.5877V16.95C23.2767 16.864 23.5074 16.7511 23.7219 16.615L26.9709 19.8846C26.6403 20.4105 26.4494 21.033 26.4494 21.7C26.4495 23.5865 27.9789 25.116 29.8654 25.116C31.7517 25.1158 33.2813 23.5863 33.2814 21.7C33.2814 19.8136 31.7518 18.2842 29.8654 18.284C29.3486 18.284 28.8582 18.3988 28.4191 18.6043L24.9963 15.159C25.1971 14.724 25.3107 14.2399 25.3107 13.7293C25.3107 11.8428 23.7812 10.3134 21.8947 10.3133C21.3918 10.3133 20.9145 10.4228 20.4845 10.618L16.0246 6.12871L19.9679 2.18633Z" fill="#F4511E"/>
</svg>
