<svg width="39" height="42" viewBox="0 0 39 42" fill="none" xmlns="http://www.w3.org/2000/svg">
<path d="M10.8649 23.8368C1.96902 15.1286 6.41697 7.87175 9.19691 4.7876C7.52894 8.05317 8.08489 15.1286 13.6448 20.0269C20.6581 26.2058 29.2125 23.2925 33.1044 20.5712C31.9924 24.6336 21.9846 32.5449 10.8649 23.8368Z" fill="#0868AC"/>
<path d="M17.4568 16.5124C10.956 10.6687 14.2064 5.799 16.2379 3.72937C15.019 5.92074 15.4253 10.6687 19.4883 13.9558C24.6134 18.1021 30.8647 16.1471 33.7088 14.321C32.8962 17.0471 25.5828 22.356 17.4568 16.5124Z" fill="#0868AC"/>
<path d="M22.5894 9.27597C18.1415 5.15104 20.3655 1.7136 21.7554 0.252686C20.9215 1.79953 21.1994 5.15104 23.9794 7.47131C27.486 10.3981 31.7632 9.01816 33.7092 7.72912C33.1532 9.65344 28.1493 13.4009 22.5894 9.27597Z" fill="#0868AC"/>
<path d="M32.7269 37.5136L31.8955 34.6416H33.785L34.0873 35.6241L36.8838 31.6184H39L34.6164 37.5136L34.2385 39.0252H32.2734L32.7269 37.5136Z" fill="#131B28"/>
<path d="M4.98828 34.5746C4.61035 36.3634 3.73369 40.1515 3.25 40.9985C2.76628 41.8446 1.0839 41.805 0.302734 41.6791L0.680664 40.0912C1.1339 40.0912 1.51225 40.0913 1.81445 39.6381C2.05652 39.2735 2.77117 36.1111 3.09863 34.5746H4.98828ZM21.6162 33.516C22.4477 32.4582 24.1108 32.231 25.3955 32.6088C26.6798 32.9867 26.831 33.7432 26.8311 34.4233C26.831 34.9673 26.6291 36.0096 26.5283 36.4633H22.2959C22.2204 37.2189 22.6741 37.5218 23.4297 37.5219H26.2266L25.8486 39.1088H23.8076C23.1272 39.1088 21.3892 39.1087 20.709 38.1264C20.029 37.1438 20.7849 34.5741 21.6162 33.516ZM10.6572 30.7953C12.2439 30.8711 13.4534 32.2311 13.5293 33.5912C13.5896 34.3169 12.8486 36.4641 12.4707 37.4467H13.3779L13 39.0336C11.5894 39.084 8.61699 39.1545 8.01172 39.0336C7.25594 38.8825 4.91353 38.5044 5.82031 34.8012C6.72732 31.098 9.07009 30.7198 10.6572 30.7953ZM15.8721 36.5395C15.7211 37.3706 16.2501 37.4467 16.6279 37.4467H17.8369L18.8955 32.6088H20.5576L19.1973 39.0336H16.8545C15.1919 39.0336 14.8138 38.8823 14.3604 38.2778C13.9071 37.6734 14.1333 36.3136 14.209 35.935C14.2697 35.6317 14.7382 33.5911 14.9648 32.6088H16.6279C16.4264 33.6417 15.9931 35.8741 15.8721 36.5395ZM32.4248 32.601C32.9537 32.6011 33.4168 32.9032 33.5586 33.432C33.6719 33.8548 33.7058 34.112 33.709 34.1879H29.7041L28.7207 39.0248H27.0586L28.3428 32.601H32.4248ZM11.5645 34.1957C11.8662 32.9115 10.7328 32.4578 9.44824 32.6088C8.16349 32.76 7.63422 34.7258 7.55859 36.3129C7.49887 37.5819 9.59917 37.5468 10.6572 37.3705C10.8588 36.7406 11.3226 35.2235 11.5645 34.1957ZM24.1113 34.0375C23.0834 34.0375 22.7252 34.6924 22.6748 35.0199H25.0176C25.1435 34.6925 25.1388 34.0377 24.1113 34.0375ZM4.98828 34.0453H3.25L3.62793 32.6088H5.36621L4.98828 34.0453Z" fill="#131B28"/>
</svg>
