<svg width="38" height="41" viewBox="0 0 38 41" fill="none" xmlns="http://www.w3.org/2000/svg">
<path d="M9.97981 4.69918C10.5782 4.35105 11.4072 4.26597 12.5117 4.58644C13.6193 4.90783 14.9127 5.61491 16.3097 6.70053C19.0995 8.86845 22.1368 12.4186 24.7152 16.8503C27.2934 21.2819 28.8783 25.6763 29.3842 29.1729C29.6375 30.9239 29.6129 32.3978 29.345 33.5195C29.0778 34.638 28.5946 35.3176 27.9962 35.6657C27.3979 36.0137 26.569 36.0975 25.4647 35.7771C24.3571 35.4557 23.0637 34.7486 21.6666 33.663C18.8769 31.4951 15.84 27.9456 13.2617 23.514C10.6833 19.0823 9.09807 14.6873 8.59216 11.1906C8.33886 9.43962 8.36336 7.96572 8.63136 6.84401C8.89857 5.72578 9.38162 5.04734 9.97981 4.69918Z" stroke="#00D8FF" stroke-width="2"/>
<path d="M27.9631 4.69918C27.3647 4.35105 26.5357 4.26597 25.4312 4.58644C24.3236 4.90783 23.0302 5.61491 21.6331 6.70053C18.8434 8.86845 15.806 12.4186 13.2277 16.8503C10.6494 21.2819 9.0646 25.6763 8.55866 29.1729C8.30533 30.9239 8.32993 32.3978 8.59786 33.5195C8.86511 34.638 9.3483 35.3176 9.94667 35.6657C10.545 36.0137 11.3739 36.0975 12.4782 35.7771C13.5858 35.4557 14.8792 34.7486 16.2762 33.663C19.0659 31.4951 22.1029 27.9456 24.6812 23.514C27.2596 19.0823 28.8448 14.6873 29.3507 11.1906C29.604 9.43962 29.5795 7.96572 29.3115 6.84401C29.0443 5.72578 28.5612 5.04734 27.9631 4.69918Z" stroke="#00D8FF" stroke-width="2"/>
<path d="M36.9316 20.2068C36.9315 19.5496 36.5969 18.8179 35.7646 18.0437C34.9308 17.2681 33.6695 16.5238 32.0273 15.8777C28.7491 14.5879 24.1517 13.7683 19.0234 13.7683C13.8954 13.7684 9.29867 14.588 6.02051 15.8777C4.3784 16.5238 3.11703 17.2681 2.2832 18.0437C1.45092 18.8179 1.11632 19.5496 1.11621 20.2068C1.11621 20.864 1.45078 21.5965 2.2832 22.3709C3.11703 23.1464 4.3785 23.8908 6.02051 24.5369C9.29867 25.8266 13.8955 26.6462 19.0234 26.6462C24.1516 26.6462 28.7491 25.8266 32.0273 24.5369C33.6694 23.8908 34.9308 23.1464 35.7646 22.3708C36.5971 21.5965 36.9316 20.864 36.9316 20.2068Z" stroke="#00D8FF" stroke-width="2"/>
<circle cx="19.0234" cy="19.8968" r="2.4096" fill="#00D8FF" stroke="#00D8FF" stroke-width="2"/>
</svg>
